<svg id="Layer_1" enable-background="new 0 0 509.628 509.628" height="512" viewBox="0 0 509.628 509.628" width="512" xmlns="http://www.w3.org/2000/svg"><path d="m509.599 164.215c-.797-38.771-16.858-74.46-45.224-100.493-26.82-24.614-61.681-37.757-98.145-37.029-36.58.739-70.977 15.396-96.86 41.28-.432.433-5.812 5.813-14.555 14.555-8.747-8.747-14.13-14.13-14.56-14.56-25.878-25.878-60.275-40.537-96.855-41.275-36.486-.733-71.325 12.415-98.146 37.029-28.366 26.033-44.427 61.723-45.224 100.494-.798 38.852 14.532 76.868 42 104.239l212.784 214.509 212.75-214.475c27.514-27.432 42.833-65.434 42.035-104.274zm-479.576.618c.627-30.506 13.24-58.565 35.515-79.007 21.308-19.556 48.157-29.272 74.972-29.272 28.433 0 56.829 10.926 78.536 32.633.527.527 8.417 8.418 20.769 20.768v15.497l-51.213 51.213 75.001 75-75.001 75 51.213 51.213v47.366l-176.548-177.978c-22.078-22.001-33.884-51.276-33.244-82.433zm416.338 82.433-176.547 177.978v-59.793l-38.787-38.787 74.999-75-74.999-75 38.787-38.787v-27.923c12.356-12.357 20.25-20.25 20.772-20.773 42.175-42.175 109.602-43.647 153.503-3.357 22.275 20.443 34.888 48.501 35.516 79.006.641 31.159-11.166 60.435-33.244 82.436z"/></svg>